STARTFONT 2.1
COMMENT
COMMENT Converted from OpenType font "Q:\font stuff\winfont\Walkway Condensed.ttf" by "otf2bdf 3.0".
COMMENT
FONT -FreeType-Walkway Condensed-Medium-R-Normal--44-440-72-72-P-132-ISO10646-1
SIZE 44 72 72
FONTBOUNDINGBOX 37 47 -5 -8
STARTPROPERTIES 19
FOUNDRY "FreeType"
FAMILY_NAME "Walkway Condensed"
WEIGHT_NAME "Medium"
SLANT "R"
SETWIDTH_NAME "Normal"
ADD_STYLE_NAME ""
PIXEL_SIZE 44
POINT_SIZE 440
RESOLUTION_X 72
RESOLUTION_Y 72
SPACING "P"
AVERAGE_WIDTH 132
CHARSET_REGISTRY "ISO10646"
CHARSET_ENCODING "1"
FONT_ASCENT 38
FONT_DESCENT 7
COPYRIGHT "©G.M."
_OTF_FONTFILE "Q:\font stuff\winfont\Walkway Condensed.ttf"
_OTF_PSNAME "WalkwayCondensed"
ENDPROPERTIES
CHARS 223
STARTCHAR 0020
ENCODING 32
SWIDTH 250 0
DWIDTH 11 0
BBX 0 0 0 0
BITMAP
ENDCHAR
STARTCHAR 0021
ENCODING 33
SWIDTH 136 0
DWIDTH 6 0
BBX 1 28 2 1
BITMAP
80
80
80
80
80
80
80
80
80
80
80
80
80
80
80
80
80
80
80
80
00
00
00
00
00
00
80
80
ENDCHAR
STARTCHAR 0022
ENCODING 34
SWIDTH 204 0
DWIDTH 9 0
BBX 5 5 2 25
BITMAP
88
88
88
88
88
ENDCHAR
STARTCHAR 0023
ENCODING 35
SWIDTH 363 0
DWIDTH 16 0
BBX 11 14 3 7
BITMAP
0080
1080
1100
1100
FFE0
1100
2100
2100
2200
2200
FF80
2200
4200
0200
ENDCHAR
STARTCHAR 0024
ENCODING 36
SWIDTH 454 0
DWIDTH 20 0
BBX 17 36 1 -3
BITMAP
020000
022000
02A000
0F5800
122400
222200
422100
422100
422100
822080
822080
422080
422000
422000
222000
122000
0E2000
03E000
023800
022600
022100
022100
022080
822080
822080
822080
822080
822080
422080
422100
222100
122200
0E2C00
03F000
022000
020000
ENDCHAR
STARTCHAR 0025
ENCODING 37
SWIDTH 522 0
DWIDTH 23 0
BBX 20 30 1 0
BITMAP
1E0040
210080
410080
410100
408100
408200
808200
808400
808400
808800
408800
408800
411000
211000
362180
082260
004420
004810
008810
008810
010810
010810
020810
020810
040810
040810
080810
080410
100620
0001C0
ENDCHAR
STARTCHAR 0026
ENCODING 38
SWIDTH 431 0
DWIDTH 19 0
BBX 15 31 1 -1
BITMAP
03C0
0420
0810
1010
1008
1008
1008
1010
1010
0820
0820
0440
0380
0100
0600
0800
1000
2000
2002
4002
4002
8002
8002
8002
8006
8006
400A
400A
2012
1862
0782
ENDCHAR
STARTCHAR 0027
ENCODING 39
SWIDTH 113 0
DWIDTH 5 0
BBX 1 5 2 25
BITMAP
80
80
80
80
80
ENDCHAR
STARTCHAR 0028
ENCODING 40
SWIDTH 159 0
DWIDTH 7 0
BBX 4 37 2 -6
BITMAP
10
20
20
20
20
40
40
40
40
80
80
80
80
80
80
80
80
80
80
80
80
80
80
80
80
80
80
80
40
40
40
40
40
20
20
20
10
ENDCHAR
STARTCHAR 0029
ENCODING 41
SWIDTH 159 0
DWIDTH 7 0
BBX 4 37 1 -6
BITMAP
80
80
40
40
40
40
20
20
20
20
20
10
10
10
10
10
10
10
10
10
10
10
10
10
10
10
20
20
20
20
20
40
40
40
40
80
80
ENDCHAR
STARTCHAR 002A
ENCODING 42
SWIDTH 227 0
DWIDTH 10 0
BBX 6 9 2 20
BITMAP
20
20
A4
68
30
68
A4
20
20
ENDCHAR
STARTCHAR 002B
ENCODING 43
SWIDTH 386 0
DWIDTH 17 0
BBX 11 16 3 3
BITMAP
0400
0400
0400
0400
0400
0400
0400
0400
FFE0
0400
0400
0400
0400
0400
0400
0400
ENDCHAR
STARTCHAR 002C
ENCODING 44
SWIDTH 181 0
DWIDTH 8 0
BBX 2 8 3 -5
BITMAP
40
40
40
40
80
80
80
80
ENDCHAR
STARTCHAR 002D
ENCODING 45
SWIDTH 250 0
DWIDTH 11 0
BBX 8 1 2 12
BITMAP
FF
ENDCHAR
STARTCHAR 002E
ENCODING 46
SWIDTH 136 0
DWIDTH 6 0
BBX 1 3 3 0
BITMAP
80
80
80
ENDCHAR
STARTCHAR 002F
ENCODING 47
SWIDTH 250 0
DWIDTH 11 0
BBX 11 31 0 0
BITMAP
0020
0020
0040
0040
0040
0080
0080
0080
0100
0100
0100
0200
0200
0200
0400
0400
0400
0800
0800
0800
1000
1000
1000
2000
2000
2000
4000
4000
4000
8000
8000
ENDCHAR
STARTCHAR 0030
ENCODING 48
SWIDTH 409 0
DWIDTH 18 0
BBX 15 31 1 -1
BITMAP
0180
0E70
1018
2008
2004
4004
4002
4002
8002
8002
8002
8002
8002
8002
8002
8002
8002
8002
8002
8002
8002
8002
8002
4002
4002
4004
2004
2004
1008
0E70
0180
ENDCHAR
STARTCHAR 0031
ENCODING 49
SWIDTH 295 0
DWIDTH 13 0
BBX 6 28 4 1
BITMAP
0C
14
34
24
44
84
04
04
04
04
04
04
04
04
04
04
04
04
04
04
04
04
04
04
04
04
04
04
ENDCHAR
STARTCHAR 0032
ENCODING 50
SWIDTH 409 0
DWIDTH 18 0
BBX 15 29 2 0
BITMAP
07C0
1830
2010
4008
4008
8004
8004
8004
8008
8008
0008
0010
0020
0040
0080
0100
0600
0800
1000
1000
2000
4000
4000
4000
8000
8000
8000
8000
FFFE
ENDCHAR
STARTCHAR 0033
ENCODING 51
SWIDTH 409 0
DWIDTH 18 0
BBX 16 30 1 -1
BITMAP
03E0
0C18
1004
2002
4002
4002
4002
4002
4002
0002
0002
0004
0008
01F0
0018
0004
0002
0002
0002
8001
8001
8001
8001
8002
4002
4002
2004
1008
0C30
03C0
ENDCHAR
STARTCHAR 0034
ENCODING 52
SWIDTH 409 0
DWIDTH 18 0
BBX 16 28 1 1
BITMAP
0210
0410
0410
0410
0810
0810
0810
1010
1010
1010
2010
2010
2010
4010
4010
4010
8010
FFFF
0010
0010
0010
0010
0010
0010
0010
0010
0010
0010
ENDCHAR
STARTCHAR 0035
ENCODING 53
SWIDTH 409 0
DWIDTH 18 0
BBX 15 29 1 0
BITMAP
7FFC
4000
4000
4000
4000
4000
4000
4000
4000
47E0
5810
6008
4004
4002
0002
0002
0002
0002
0002
8002
8002
8002
8002
4002
4004
2004
1008
0C70
0380
ENDCHAR
STARTCHAR 0036
ENCODING 54
SWIDTH 409 0
DWIDTH 18 0
BBX 14 30 2 -1
BITMAP
0780
1860
2010
4008
4008
8004
8004
8004
8004
8000
8000
8780
9860
A010
C008
8008
8008
8004
8004
8004
8004
8004
8004
8004
8008
4008
4010
2020
1CC0
0300
ENDCHAR
STARTCHAR 0037
ENCODING 55
SWIDTH 409 0
DWIDTH 18 0
BBX 13 28 3 1
BITMAP
FFF8
0008
0010
0010
0010
0020
0020
0020
0040
0040
0040
0080
0080
0100
0100
0100
0200
0200
0200
0400
0400
0400
0800
0800
0800
1000
1000
1000
ENDCHAR
STARTCHAR 0038
ENCODING 56
SWIDTH 431 0
DWIDTH 19 0
BBX 16 30 1 -1
BITMAP
07E0
0818
1004
2004
4002
4002
4002
4002
4002
4002
2004
1004
0C18
07E0
1818
2006
4002
4001
8001
8001
8001
8001
8001
8001
8001
4002
2002
1004
0E38
01C0
ENDCHAR
STARTCHAR 0039
ENCODING 57
SWIDTH 409 0
DWIDTH 18 0
BBX 14 30 2 0
BITMAP
0FC0
1020
2010
4008
8008
8004
8004
8004
8004
8004
8004
8004
8004
4004
400C
2014
1024
0FC4
0004
0004
0004
8004
8004
8004
8004
4008
4008
2010
1060
0F80
ENDCHAR
STARTCHAR 003A
ENCODING 58
SWIDTH 181 0
DWIDTH 8 0
BBX 1 20 3 0
BITMAP
80
80
80
00
00
00
00
00
00
00
00
00
00
00
00
00
00
80
80
80
ENDCHAR
STARTCHAR 003B
ENCODING 59
SWIDTH 181 0
DWIDTH 8 0
BBX 2 24 3 -4
BITMAP
40
40
40
00
00
00
00
00
00
00
00
00
00
00
00
00
40
40
40
80
80
80
80
80
ENDCHAR
STARTCHAR 003C
ENCODING 60
SWIDTH 363 0
DWIDTH 16 0
BBX 14 17 1 2
BITMAP
0004
0018
0020
00C0
0300
0400
1800
6000
8000
6000
1800
0400
0300
00C0
0020
0018
0004
ENDCHAR
STARTCHAR 003D
ENCODING 61
SWIDTH 431 0
DWIDTH 19 0
BBX 16 7 2 7
BITMAP
FFFF
0000
0000
0000
0000
0000
FFFF
ENDCHAR
STARTCHAR 003E
ENCODING 62
SWIDTH 363 0
DWIDTH 16 0
BBX 14 17 1 2
BITMAP
8000
6000
1800
0400
0300
00C0
0020
0018
0004
0018
0020
00C0
0300
0400
1800
6000
8000
ENDCHAR
STARTCHAR 003F
ENCODING 63
SWIDTH 363 0
DWIDTH 16 0
BBX 13 30 1 0
BITMAP
0100
0EE0
3010
4008
4008
8008
8008
8008
8008
0008
0008
0008
0010
0020
0020
0040
0080
0080
0100
0100
0200
0200
0000
0000
0000
0000
0000
0000
0200
0200
ENDCHAR
STARTCHAR 0040
ENCODING 64
SWIDTH 590 0
DWIDTH 26 0
BBX 22 32 2 -1
BITMAP
003800
01C700
060080
080060
100020
100010
203808
40C688
430288
420184
840084
840084
880084
880084
880084
880084
880084
900104
880108
880108
880310
880310
440520
440940
433080
20C008
100010
100010
080060
060080
01C700
003800
ENDCHAR
STARTCHAR 0041
ENCODING 65
SWIDTH 454 0
DWIDTH 20 0
BBX 19 30 0 0
BITMAP
004000
006000
006000
00A000
009000
009000
011000
010800
010800
020800
020400
020400
040400
040400
040200
040200
080200
080100
080100
1FFF00
100080
100080
200080
200080
200040
400040
400040
400020
800020
800000
ENDCHAR
STARTCHAR 0042
ENCODING 66
SWIDTH 454 0
DWIDTH 20 0
BBX 18 30 1 0
BITMAP
FFF800
800400
800200
800100
800100
800080
800080
800080
800080
800080
800100
800100
800200
800400
FFF800
800E00
800100
800080
800080
800080
800040
800040
800040
800040
800080
800080
800080
800100
800200
FFFC00
ENDCHAR
STARTCHAR 0043
ENCODING 67
SWIDTH 500 0
DWIDTH 22 0
BBX 19 30 1 0
BITMAP
00FE00
030180
040040
080020
100020
200000
200000
400000
400000
400000
400000
800000
800000
800000
800000
800000
800000
800000
800000
400000
400000
400000
400000
200000
200000
100020
080040
0C0040
060180
01FE00
ENDCHAR
STARTCHAR 0044
ENCODING 68
SWIDTH 477 0
DWIDTH 21 0
BBX 19 30 1 0
BITMAP
7FE000
801C00
800200
800100
800100
800080
800080
800040
800040
800040
800040
800040
800020
800020
800020
800020
800020
800020
800040
800040
800040
800040
800040
800080
800080
800100
800200
800400
801800
7FE000
ENDCHAR
STARTCHAR 0045
ENCODING 69
SWIDTH 386 0
DWIDTH 17 0
BBX 16 30 1 0
BITMAP
7FFF
8000
8000
8000
8000
8000
8000
8000
8000
8000
8000
8000
8000
8000
7FFC
8000
8000
8000
8000
8000
8000
8000
8000
8000
8000
8000
8000
8000
8000
7FFF
ENDCHAR
STARTCHAR 0046
ENCODING 70
SWIDTH 363 0
DWIDTH 16 0
BBX 15 29 1 0
BITMAP
7FFE
8000
8000
8000
8000
8000
8000
8000
8000
8000
8000
8000
8000
8000
7FF8
8000
8000
8000
8000
8000
8000
8000
8000
8000
8000
8000
8000
8000
8000
ENDCHAR
STARTCHAR 0047
ENCODING 71
SWIDTH 522 0
DWIDTH 23 0
BBX 21 30 1 0
BITMAP
01FC00
060300
080080
100040
200020
200020
400010
400010
400010
800000
800000
800000
800000
800000
800000
800000
801FF8
800008
800008
800008
800008
800010
400010
400010
200010
200020
100040
080040
060180
01FE00
ENDCHAR
STARTCHAR 0048
ENCODING 72
SWIDTH 477 0
DWIDTH 21 0
BBX 18 28 1 1
BITMAP
800040
800040
800040
800040
800040
800040
800040
800040
800040
800040
800040
800040
800040
7FFFC0
800040
800040
800040
800040
800040
800040
800040
800040
800040
800040
800040
800040
800040
800040
ENDCHAR
STARTCHAR 0049
ENCODING 73
SWIDTH 90 0
DWIDTH 4 0
BBX 1 28 1 1
BITMAP
80
80
80
80
80
80
80
80
80
80
80
80
80
80
80
80
80
80
80
80
80
80
80
80
80
80
80
80
ENDCHAR
STARTCHAR 004A
ENCODING 74
SWIDTH 340 0
DWIDTH 15 0
BBX 12 30 1 -1
BITMAP
0010
0010
0010
0010
0010
0010
0010
0010
0010
0010
0010
0010
0010
0010
0010
0010
0010
0010
0010
0010
0010
0010
0010
0010
0010
8010
8020
8020
4040
3F80
ENDCHAR
STARTCHAR 004B
ENCODING 75
SWIDTH 477 0
DWIDTH 21 0
BBX 19 30 1 0
BITMAP
000040
800080
800100
800200
800400
800400
800800
801000
802000
804000
808000
810000
820000
860000
890000
908000
908000
A04000
402000
801000
801000
800800
800400
800400
800200
800100
800080
800080
800040
000020
ENDCHAR
STARTCHAR 004C
ENCODING 76
SWIDTH 363 0
DWIDTH 16 0
BBX 15 29 1 1
BITMAP
8000
8000
8000
8000
8000
8000
8000
8000
8000
8000
8000
8000
8000
8000
8000
8000
8000
8000
8000
8000
8000
8000
8000
8000
8000
8000
8000
8000
7FFE
ENDCHAR
STARTCHAR 004D
ENCODING 77
SWIDTH 568 0
DWIDTH 25 0
BBX 22 30 1 0
BITMAP
400004
C00004
A0000C
A0000C
A0000C
900014
900014
900014
880024
880024
880024
840044
840044
840044
820084
820084
820084
810104
810104
810104
808204
808204
808204
804404
804404
804404
802804
802804
802804
001000
ENDCHAR
STARTCHAR 004E
ENCODING 78
SWIDTH 477 0
DWIDTH 21 0
BBX 18 30 1 0
BITMAP
400000
C00040
A00040
A00040
900040
880040
880040
840040
840040
820040
820040
810040
810040
808040
804040
804040
802040
802040
801040
801040
800840
800840
800440
800240
800240
800140
800140
8000C0
8000C0
000040
ENDCHAR
STARTCHAR 004F
ENCODING 79
SWIDTH 522 0
DWIDTH 23 0
BBX 21 30 1 -1
BITMAP
007800
038700
0C0080
100040
100020
200020
400010
400010
400010
800008
800008
800008
800008
800008
800008
800008
800008
800008
800008
800008
800008
400008
400010
400010
200020
200020
100040
0800C0
040100
03FE00
ENDCHAR
STARTCHAR 0050
ENCODING 80
SWIDTH 431 0
DWIDTH 19 0
BBX 17 29 1 0
BITMAP
7FF800
800600
800100
800100
800080
800080
800080
800080
800080
800080
800080
800080
800100
800100
800200
801C00
FFE000
800000
800000
800000
800000
800000
800000
800000
800000
800000
800000
800000
800000
ENDCHAR
STARTCHAR 0051
ENCODING 81
SWIDTH 522 0
DWIDTH 23 0
BBX 21 33 1 -3
BITMAP
007800
038700
0C0080
100040
100020
200020
400010
400010
400010
800008
800008
800008
800008
800008
800008
800008
800008
800008
800008
800008
800008
43C008
442010
481010
281020
300820
100840
080880
060900
01FE00
000400
000200
0001F0
ENDCHAR
STARTCHAR 0052
ENCODING 82
SWIDTH 454 0
DWIDTH 20 0
BBX 17 30 1 0
BITMAP
7FF800
800600
800100
800100
800080
800080
800080
800080
800080
800080
800080
800080
800100
800100
800600
7FF800
800600
800300
800100
800100
800080
800080
800080
800080
800080
800080
800080
800080
800080
000080
ENDCHAR
STARTCHAR 0053
ENCODING 83
SWIDTH 454 0
DWIDTH 20 0
BBX 17 30 1 0
BITMAP
07F000
180C00
200200
400100
400100
400100
800080
800080
400080
400000
400000
200000
100000
0E0000
01C000
003800
000600
000100
000100
000080
800080
800080
800080
800080
800080
400080
400100
200100
180600
07F800
ENDCHAR
STARTCHAR 0054
ENCODING 84
SWIDTH 386 0
DWIDTH 17 0
BBX 17 30 0 0
BITMAP
FFFF80
008000
008000
008000
008000
008000
008000
008000
008000
008000
008000
008000
008000
008000
008000
008000
008000
008000
008000
008000
008000
008000
008000
008000
008000
008000
008000
008000
008000
008000
ENDCHAR
STARTCHAR 0055
ENCODING 85
SWIDTH 454 0
DWIDTH 20 0
BBX 18 30 1 -1
BITMAP
000040
800040
800040
800040
800040
800040
800040
800040
800040
800040
800040
800040
800040
800040
800040
800040
800040
800040
800040
800040
800040
400040
400080
400080
400080
200080
200100
100100
080600
07F800
ENDCHAR
STARTCHAR 0056
ENCODING 86
SWIDTH 431 0
DWIDTH 19 0
BBX 19 30 0 0
BITMAP
800020
800020
400040
400040
400040
200080
200080
200080
100080
100100
100100
100100
080200
080200
080200
040400
040400
040400
020400
020800
020800
010800
011000
011000
011000
009000
00A000
00A000
006000
004000
ENDCHAR
STARTCHAR 0057
ENCODING 87
SWIDTH 681 0
DWIDTH 30 0
BBX 28 29 1 1
BITMAP
80100010
80100010
80100020
80100020
40080020
40080020
40080040
20040040
20040040
20040080
20040080
10060080
10060080
100A0100
08090100
08090100
08090200
04108200
04108200
04108200
04208400
02204400
02204400
02204800
01402800
01402800
01402800
01803000
00801000
ENDCHAR
STARTCHAR 0058
ENCODING 88
SWIDTH 431 0
DWIDTH 19 0
BBX 18 30 0 0
BITMAP
400040
400080
200080
200100
100100
100200
080200
040400
040800
020800
021000
011000
00A000
00C000
004000
00C000
00A000
012000
011000
020800
040800
040400
080400
080200
100200
100100
200080
400080
400040
800040
ENDCHAR
STARTCHAR 0059
ENCODING 89
SWIDTH 431 0
DWIDTH 19 0
BBX 19 30 0 0
BITMAP
800020
400040
400040
200080
200080
100100
080200
080200
040400
020400
020800
011000
011000
00A000
006000
004000
004000
004000
004000
004000
004000
004000
004000
004000
004000
004000
004000
004000
004000
004000
ENDCHAR
STARTCHAR 005A
ENCODING 90
SWIDTH 431 0
DWIDTH 19 0
BBX 17 30 1 0
BITMAP
7FFF80
000080
000100
000100
000200
000400
000400
000800
000800
001000
001000
002000
004000
004000
008000
008000
010000
010000
020000
040000
040000
080000
080000
100000
100000
200000
400000
400000
800000
FFFF80
ENDCHAR
STARTCHAR 005B
ENCODING 91
SWIDTH 159 0
DWIDTH 7 0
BBX 4 40 3 -7
BITMAP
F0
80
80
80
80
80
80
80
80
80
80
80
80
80
80
80
80
80
80
80
80
80
80
80
80
80
80
80
80
80
80
80
80
80
80
80
80
80
80
60
ENDCHAR
STARTCHAR 005C
ENCODING 92
SWIDTH 250 0
DWIDTH 11 0
BBX 11 30 0 1
BITMAP
8000
8000
8000
4000
4000
4000
2000
2000
2000
1000
1000
1000
0800
0800
0400
0400
0400
0200
0200
0200
0100
0100
0100
0080
0080
0080
0040
0040
0040
0020
ENDCHAR
STARTCHAR 005D
ENCODING 93
SWIDTH 159 0
DWIDTH 7 0
BBX 4 40 0 -7
BITMAP
F0
10
10
10
10
10
10
10
10
10
10
10
10
10
10
10
10
10
10
10
10
10
10
10
10
10
10
10
10
10
10
10
10
10
10
10
10
10
10
60
ENDCHAR
STARTCHAR 005E
ENCODING 94
SWIDTH 204 0
DWIDTH 9 0
BBX 5 6 2 23
BITMAP
20
50
50
90
88
80
ENDCHAR
STARTCHAR 005F
ENCODING 95
SWIDTH 363 0
DWIDTH 16 0
BBX 16 2 0 -6
BITMAP
FFFF
FFFF
ENDCHAR
STARTCHAR 0060
ENCODING 96
SWIDTH 136 0
DWIDTH 6 0
BBX 4 6 1 24
BITMAP
80
40
40
20
10
10
ENDCHAR
STARTCHAR 0061
ENCODING 97
SWIDTH 386 0
DWIDTH 17 0
BBX 14 23 1 -1
BITMAP
07C0
1824
2014
400C
400C
800C
8004
8004
8004
8004
8004
8004
8004
8004
8004
8004
8004
400C
400C
2014
1024
0CC0
0300
ENDCHAR
STARTCHAR 0062
ENCODING 98
SWIDTH 386 0
DWIDTH 17 0
BBX 15 30 1 0
BITMAP
8000
8000
8000
8000
8000
8000
8000
83E0
8C10
9008
A004
A004
C004
4002
4002
4002
4002
8002
8002
8002
4002
4002
4002
C002
A004
A004
9008
8818
0660
0180
ENDCHAR
STARTCHAR 0063
ENCODING 99
SWIDTH 363 0
DWIDTH 16 0
BBX 14 23 1 -1
BITMAP
07C0
1830
1010
2008
4008
4004
8000
8000
8000
8000
8000
8000
8000
8000
8000
8004
8004
4004
4008
2008
1010
0CE0
0300
ENDCHAR
STARTCHAR 0064
ENCODING 100
SWIDTH 386 0
DWIDTH 17 0
BBX 14 30 1 0
BITMAP
0004
0004
0004
0004
0004
0004
0004
07C4
1824
2014
400C
400C
800C
8004
8004
8004
8004
8004
8004
8004
8004
8004
8004
8004
400C
400C
2014
1024
0CC0
0300
ENDCHAR
STARTCHAR 0065
ENCODING 101
SWIDTH 363 0
DWIDTH 16 0
BBX 15 23 0 -1
BITMAP
03E0
0C10
1008
2004
2004
4002
4002
4002
4002
8002
8002
FFFC
8000
8000
4000
4000
4002
4002
2004
2004
1008
0E70
0180
ENDCHAR
STARTCHAR 0066
ENCODING 102
SWIDTH 181 0
DWIDTH 8 0
BBX 9 29 1 0
BITMAP
0780
0800
1000
1000
2000
2000
2000
2000
2000
2000
FC00
2000
2000
2000
2000
2000
2000
2000
2000
2000
2000
2000
2000
2000
2000
2000
2000
2000
2000
ENDCHAR
STARTCHAR 0067
ENCODING 103
SWIDTH 386 0
DWIDTH 17 0
BBX 14 30 1 -8
BITMAP
0780
1864
2014
4014
400C
800C
8004
8004
8004
8004
8004
8004
8004
8004
8004
8004
800C
400C
2014
2024
1844
0784
0004
4004
4004
4008
4008
2010
1030
0FC0
ENDCHAR
STARTCHAR 0068
ENCODING 104
SWIDTH 363 0
DWIDTH 16 0
BBX 13 28 1 1
BITMAP
8000
8000
8000
8000
8000
8000
8000
87C0
8820
9010
A008
C008
C008
4008
4008
8008
8008
8008
8008
8008
8008
8008
8008
8008
8008
8008
8008
8008
ENDCHAR
STARTCHAR 0069
ENCODING 105
SWIDTH 90 0
DWIDTH 4 0
BBX 1 28 1 2
BITMAP
80
00
00
00
00
00
00
00
00
80
80
80
80
80
80
80
80
80
80
80
80
80
80
80
80
80
80
80
ENDCHAR
STARTCHAR 006A
ENCODING 106
SWIDTH 90 0
DWIDTH 4 0
BBX 7 37 -5 -6
BITMAP
02
00
00
00
00
00
00
00
00
02
02
02
02
02
02
02
02
02
02
02
02
02
02
02
02
02
02
02
02
02
02
02
02
04
04
18
E0
ENDCHAR
STARTCHAR 006B
ENCODING 107
SWIDTH 363 0
DWIDTH 16 0
BBX 14 29 1 1
BITMAP
8000
8000
8000
8000
8000
8000
8000
8000
8008
8010
8020
8040
8080
8100
8200
8400
8C00
9200
A100
4100
8080
8040
8040
8020
8020
8010
8008
8008
0004
ENDCHAR
STARTCHAR 006C
ENCODING 108
SWIDTH 90 0
DWIDTH 4 0
BBX 1 28 1 1
BITMAP
80
80
80
80
80
80
80
80
80
80
80
80
80
80
80
80
80
80
80
80
80
80
80
80
80
80
80
80
ENDCHAR
STARTCHAR 006D
ENCODING 109
SWIDTH 568 0
DWIDTH 25 0
BBX 22 22 1 0
BITMAP
0781E0
184218
A02408
A02804
C01804
C01004
401004
401004
801004
801004
801004
801004
801004
801004
801004
801004
801004
801004
801004
801004
801004
001000
ENDCHAR
STARTCHAR 006E
ENCODING 110
SWIDTH 363 0
DWIDTH 16 0
BBX 13 21 1 0
BITMAP
07C0
0820
9010
A008
C008
C008
4008
4008
8008
8008
8008
8008
8008
8008
8008
8008
8008
8008
8008
8008
8008
ENDCHAR
STARTCHAR 006F
ENCODING 111
SWIDTH 386 0
DWIDTH 17 0
BBX 15 23 1 -1
BITMAP
07C0
1830
2010
2008
4004
8004
8004
8002
8002
8002
8002
8002
8002
8002
8002
8004
8004
4004
4008
2008
1010
0CE0
0300
ENDCHAR
STARTCHAR 0070
ENCODING 112
SWIDTH 386 0
DWIDTH 17 0
BBX 15 28 1 -8
BITMAP
03E0
0C10
9008
A004
A004
C004
4002
4002
4002
8002
8002
8002
8002
4002
4002
4002
C002
C004
A004
9008
8818
8660
8180
8000
8000
8000
8000
8000
ENDCHAR
STARTCHAR 0071
ENCODING 113
SWIDTH 386 0
DWIDTH 17 0
BBX 14 28 1 -8
BITMAP
07C0
1820
2014
400C
400C
800C
8004
8004
8004
8004
8004
8004
8004
8004
8004
8004
8004
400C
400C
2014
1014
0CE4
0304
0004
0004
0004
0004
0004
ENDCHAR
STARTCHAR 0072
ENCODING 114
SWIDTH 227 0
DWIDTH 10 0
BBX 8 21 1 0
BITMAP
03
0C
90
90
A0
A0
C0
40
40
40
40
80
80
80
80
80
80
80
80
80
80
ENDCHAR
STARTCHAR 0073
ENCODING 115
SWIDTH 340 0
DWIDTH 15 0
BBX 12 23 1 0
BITMAP
0F80
3060
2020
4010
4010
4010
4000
4000
4000
2000
1C00
0380
0060
0010
0010
8010
8010
8010
4010
4010
2020
1CC0
0700
ENDCHAR
STARTCHAR 0074
ENCODING 116
SWIDTH 181 0
DWIDTH 8 0
BBX 6 25 1 2
BITMAP
20
20
20
20
20
20
FC
20
20
20
20
20
20
20
20
20
20
20
20
20
20
20
20
20
20
ENDCHAR
STARTCHAR 0075
ENCODING 117
SWIDTH 363 0
DWIDTH 16 0
BBX 13 21 1 1
BITMAP
8008
8008
8008
8008
8008
8008
8008
8008
8008
8008
8008
8008
8008
8008
4008
4018
4018
2018
2028
18C0
0700
ENDCHAR
STARTCHAR 0076
ENCODING 118
SWIDTH 340 0
DWIDTH 15 0
BBX 13 21 1 1
BITMAP
0008
8008
8010
8010
4010
4010
4020
2020
2020
2040
2040
1040
1080
1080
0880
0880
0900
0500
0500
0600
0200
ENDCHAR
STARTCHAR 0077
ENCODING 119
SWIDTH 545 0
DWIDTH 24 0
BBX 22 21 1 1
BITMAP
804004
804008
804008
402008
402008
402010
202010
203010
203020
105020
104820
104820
104840
088840
088440
088480
050480
050280
050280
030300
020100
ENDCHAR
STARTCHAR 0078
ENCODING 120
SWIDTH 318 0
DWIDTH 14 0
BBX 14 21 0 1
BITMAP
4008
2008
2010
1020
1020
0840
0440
0480
0300
0100
0300
0280
0480
0840
0840
1020
1010
2010
4008
4008
8004
ENDCHAR
STARTCHAR 0079
ENCODING 121
SWIDTH 363 0
DWIDTH 16 0
BBX 13 28 1 -6
BITMAP
8008
8008
8008
8008
8008
8008
8008
8008
8008
8008
8008
8008
8008
8008
4008
4018
4018
2018
2028
18C8
0708
8008
8008
8008
4010
4010
3060
0F80
ENDCHAR
STARTCHAR 007A
ENCODING 122
SWIDTH 340 0
DWIDTH 15 0
BBX 13 21 1 1
BITMAP
3FF0
0010
0020
0040
0040
0080
0080
0100
0200
0200
0400
0400
0800
0800
1000
2000
2000
4000
4000
8000
FFF8
ENDCHAR
STARTCHAR 007B
ENCODING 123
SWIDTH 250 0
DWIDTH 11 0
BBX 5 39 3 -7
BITMAP
18
20
20
20
20
20
20
20
20
20
20
20
20
20
20
20
20
40
40
80
40
40
20
20
20
20
20
20
20
20
20
20
20
20
20
20
20
20
10
ENDCHAR
STARTCHAR 007C
ENCODING 124
SWIDTH 159 0
DWIDTH 7 0
BBX 1 32 3 -1
BITMAP
80
80
80
80
80
80
80
80
80
80
80
80
80
80
80
80
80
80
80
80
80
80
80
80
80
80
80
80
80
80
80
80
ENDCHAR
STARTCHAR 007D
ENCODING 125
SWIDTH 250 0
DWIDTH 11 0
BBX 5 39 3 -7
BITMAP
C0
40
40
20
20
20
20
20
20
20
20
20
20
20
20
20
20
20
10
08
10
20
20
20
20
20
20
20
20
20
20
20
20
20
20
40
40
40
C0
ENDCHAR
STARTCHAR 007E
ENCODING 126
SWIDTH 386 0
DWIDTH 17 0
BBX 13 5 2 16
BITMAP
3008
4C08
8310
81F0
8000
ENDCHAR
STARTCHAR 00A0
ENCODING 160
SWIDTH 363 0
DWIDTH 16 0
BBX 0 0 0 0
BITMAP
ENDCHAR
STARTCHAR 00A1
ENCODING 161
SWIDTH 136 0
DWIDTH 6 0
BBX 1 28 2 -4
BITMAP
80
80
00
00
00
00
00
00
80
80
80
80
80
80
80
80
80
80
80
80
80
80
80
80
80
80
80
80
ENDCHAR
STARTCHAR 00A2
ENCODING 162
SWIDTH 363 0
DWIDTH 16 0
BBX 14 25 1 0
BITMAP
0020
07E0
1830
1050
2048
4088
4084
8080
8100
8100
8100
8200
8200
8200
8400
8400
8404
8804
4804
4808
3008
1010
1CE0
2300
2000
ENDCHAR
STARTCHAR 00A4
ENCODING 164
SWIDTH 409 0
DWIDTH 18 0
BBX 13 17 2 8
BITMAP
8000
8008
4010
2720
18E0
1040
2020
2020
2020
2020
2020
2020
1040
1860
27A0
4010
8008
ENDCHAR
STARTCHAR 00A5
ENCODING 165
SWIDTH 454 0
DWIDTH 20 0
BBX 19 29 0 0
BITMAP
800000
400020
200040
200040
100080
100100
080100
040200
040400
020400
020800
010800
009000
00A000
006000
004000
004000
004000
1FFF80
004000
004000
004000
004000
1FFF80
004000
004000
004000
004000
004000
ENDCHAR
STARTCHAR 00A6
ENCODING 166
SWIDTH 159 0
DWIDTH 7 0
BBX 1 32 3 -2
BITMAP
80
80
80
80
80
80
80
80
80
80
80
80
80
80
00
00
00
00
80
80
80
80
80
80
80
80
80
80
80
80
80
80
ENDCHAR
STARTCHAR 00A7
ENCODING 167
SWIDTH 409 0
DWIDTH 18 0
BBX 12 34 3 -5
BITMAP
0600
39C0
2020
4020
8020
8010
8010
8000
4000
4000
3000
0F00
30C0
4020
8020
8010
8010
8010
8010
4010
4020
3040
0F80
0180
0040
0020
0020
8020
8020
8020
8020
4040
30C0
0F00
ENDCHAR
STARTCHAR 00A8
ENCODING 168
SWIDTH 159 0
DWIDTH 7 0
BBX 4 3 1 25
BITMAP
80
90
80
ENDCHAR
STARTCHAR 00A9
ENCODING 169
SWIDTH 386 0
DWIDTH 17 0
BBX 15 20 1 10
BITMAP
0180
0E60
1010
2008
2184
4664
4822
8802
9002
9002
9002
9002
8812
4822
4424
43C4
2008
1018
0C60
0380
ENDCHAR
STARTCHAR 00AA
ENCODING 170
SWIDTH 272 0
DWIDTH 12 0
BBX 9 14 1 15
BITMAP
1E00
2180
4180
4080
8080
8080
8080
8080
8080
8080
4080
4180
2180
1E00
ENDCHAR
STARTCHAR 00AB
ENCODING 171
SWIDTH 272 0
DWIDTH 12 0
BBX 8 10 2 7
BITMAP
08
11
22
44
88
88
44
22
11
08
ENDCHAR
STARTCHAR 00AC
ENCODING 172
SWIDTH 431 0
DWIDTH 19 0
BBX 16 7 1 6
BITMAP
FFFF
0001
0001
0001
0001
0001
0001
ENDCHAR
STARTCHAR 00AD
ENCODING 173
SWIDTH 409 0
DWIDTH 18 0
BBX 14 1 2 10
BITMAP
FFFC
ENDCHAR
STARTCHAR 00AE
ENCODING 174
SWIDTH 386 0
DWIDTH 17 0
BBX 15 20 1 10
BITMAP
0100
0EE0
1010
2008
4704
4844
8824
8822
8822
8842
87C2
8822
8822
8824
4824
4024
2008
1010
0C60
0380
ENDCHAR
STARTCHAR 00AF
ENCODING 175
SWIDTH 227 0
DWIDTH 10 0
BBX 8 1 1 27
BITMAP
FF
ENDCHAR
STARTCHAR 00B0
ENCODING 176
SWIDTH 295 0
DWIDTH 13 0
BBX 10 12 1 16
BITMAP
0E00
3100
2080
4040
4040
4040
8040
4040
4040
4080
2080
1F00
ENDCHAR
STARTCHAR 00B1
ENCODING 177
SWIDTH 431 0
DWIDTH 19 0
BBX 12 19 4 0
BITMAP
0400
0400
0400
0400
0400
0400
0400
0400
FFE0
0400
0400
0400
0400
0400
0400
0400
0000
0000
FFF0
ENDCHAR
STARTCHAR 00B2
ENCODING 178
SWIDTH 272 0
DWIDTH 12 0
BBX 10 18 1 12
BITMAP
1F00
6080
4080
8080
8080
8080
0080
0100
0600
0C00
1000
2000
4000
4000
8000
8000
8000
FFC0
ENDCHAR
STARTCHAR 00B3
ENCODING 179
SWIDTH 295 0
DWIDTH 13 0
BBX 11 18 1 12
BITMAP
1F00
20C0
4040
4040
4040
4040
0040
0080
0780
0040
0040
8020
8020
8020
4020
4040
2080
1F00
ENDCHAR
STARTCHAR 00B4
ENCODING 180
SWIDTH 159 0
DWIDTH 7 0
BBX 4 6 1 24
BITMAP
10
20
20
40
80
80
ENDCHAR
STARTCHAR 00B5
ENCODING 181
SWIDTH 363 0
DWIDTH 16 0
BBX 13 27 1 -6
BITMAP
8008
8008
8008
8008
8008
8008
8008
8008
8008
8008
8008
8008
4008
4008
4008
C008
A008
A010
9010
8C60
83C0
8040
8020
8018
8000
8000
8000
ENDCHAR
STARTCHAR 00B6
ENCODING 182
SWIDTH 340 0
DWIDTH 15 0
BBX 11 36 2 -6
BITMAP
07E0
1F20
3F20
7F20
7F20
7F20
FF20
FF20
FF20
FF20
FF20
FF20
FF20
FF20
7F20
7F20
3F20
1F20
0720
0120
0120
0120
0120
0120
0120
0120
0120
0120
0120
0120
0120
0120
0120
0120
0120
0100
ENDCHAR
STARTCHAR 00B7
ENCODING 183
SWIDTH 136 0
DWIDTH 6 0
BBX 1 4 3 13
BITMAP
80
80
80
80
ENDCHAR
STARTCHAR 00B8
ENCODING 184
SWIDTH 181 0
DWIDTH 8 0
BBX 6 8 1 -7
BITMAP
20
20
38
04
04
04
8C
70
ENDCHAR
STARTCHAR 00B9
ENCODING 185
SWIDTH 204 0
DWIDTH 9 0
BBX 5 17 1 11
BITMAP
08
18
38
68
C8
08
08
08
08
08
08
08
08
08
08
08
08
ENDCHAR
STARTCHAR 00BA
ENCODING 186
SWIDTH 295 0
DWIDTH 13 0
BBX 10 14 1 15
BITMAP
0E00
3180
4080
4040
8040
8040
8040
8040
8040
8040
4040
4080
3100
0E00
ENDCHAR
STARTCHAR 00BB
ENCODING 187
SWIDTH 272 0
DWIDTH 12 0
BBX 8 10 2 7
BITMAP
88
48
24
12
09
09
12
24
48
80
ENDCHAR
STARTCHAR 00BC
ENCODING 188
SWIDTH 568 0
DWIDTH 25 0
BBX 21 31 2 0
BITMAP
000200
000200
080400
180400
280400
480800
880800
080800
081000
081000
081000
082000
082000
082200
084240
084440
084440
088840
088840
008840
011040
011040
012040
022040
023FF8
020040
040040
040040
040040
080040
080000
ENDCHAR
STARTCHAR 00BD
ENCODING 189
SWIDTH 568 0
DWIDTH 25 0
BBX 21 31 2 0
BITMAP
000200
000400
080400
180400
280800
480800
880800
081000
081000
081000
082000
082000
082000
0841C0
084630
084810
088810
089008
088008
010010
010020
010040
020080
020100
020200
040400
040800
040800
081000
081000
080FF8
ENDCHAR
STARTCHAR 00BE
ENCODING 190
SWIDTH 636 0
DWIDTH 28 0
BBX 24 31 2 0
BITMAP
000040
000040
1F0080
608080
408080
804100
804100
804100
008200
010200
0F0200
008400
004400
004440
004888
804888
804888
809108
619108
1E1208
002208
002208
002408
004408
0047FF
004008
008008
008008
010008
010008
010000
ENDCHAR
STARTCHAR 00BF
ENCODING 191
SWIDTH 363 0
DWIDTH 16 0
BBX 13 29 1 -3
BITMAP
0200
0000
0000
0000
0000
0000
0000
0200
0200
0200
0200
0400
0400
0800
0800
1000
2000
4000
4000
8000
8000
8008
8008
8008
8008
4010
4010
2020
1FC0
ENDCHAR
STARTCHAR 00C0
ENCODING 192
SWIDTH 477 0
DWIDTH 21 0
BBX 19 38 1 0
BITMAP
010000
008000
008000
004000
002000
002000
000000
000000
004000
004000
00A000
00A000
00A000
011000
011000
011000
020800
020800
020800
040800
040400
040400
080400
080200
080200
080200
100100
1FFF00
200100
200100
200080
200080
400080
400040
400040
800040
800020
800020
ENDCHAR
STARTCHAR 00C1
ENCODING 193
SWIDTH 477 0
DWIDTH 21 0
BBX 19 38 1 1
BITMAP
001000
002000
004000
004000
008000
010000
000000
000000
004000
004000
00A000
00A000
00A000
011000
011000
011000
020800
020800
020800
040800
040400
040400
080400
080200
080200
080200
100100
1FFF00
200100
200100
200080
200080
400080
400040
400040
800040
800020
800020
ENDCHAR
STARTCHAR 00C2
ENCODING 194
SWIDTH 477 0
DWIDTH 21 0
BBX 19 37 1 1
BITMAP
004000
00A000
012000
011000
021000
020800
000000
004000
004000
00A000
00A000
00A000
011000
011000
011000
020800
020800
020800
040800
040400
040400
080400
080200
080200
080200
100100
1FFF00
200100
200100
200080
200080
400080
400040
400040
800040
800020
800020
ENDCHAR
STARTCHAR 00C3
ENCODING 195
SWIDTH 477 0
DWIDTH 21 0
BBX 19 35 1 1
BITMAP
038400
044400
003800
000000
000000
004000
004000
00A000
00A000
00A000
011000
011000
011000
020800
020800
020800
040800
040400
040400
080400
080200
080200
080200
100100
1FFF00
200100
200100
200080
200080
400080
400040
400040
800040
800020
800020
ENDCHAR
STARTCHAR 00C4
ENCODING 196
SWIDTH 477 0
DWIDTH 21 0
BBX 19 35 1 1
BITMAP
011000
011000
011000
000000
000000
004000
004000
00A000
00A000
00A000
011000
011000
011000
020800
020800
020800
040800
040400
040400
080400
080200
080200
080200
100100
1FFF00
200100
200100
200080
200080
400080
400040
400040
800040
800020
800020
ENDCHAR
STARTCHAR 00C5
ENCODING 197
SWIDTH 477 0
DWIDTH 21 0
BBX 19 38 1 1
BITMAP
00E000
011000
011000
011000
011000
00E000
000000
000000
004000
004000
00A000
00A000
00A000
011000
011000
011000
020800
020800
020800
040800
040400
040400
080400
080200
080200
080200
100100
1FFF00
200100
200100
200080
200080
400080
400040
400040
800040
800020
800020
ENDCHAR
STARTCHAR 00C6
ENCODING 198
SWIDTH 750 0
DWIDTH 33 0
BBX 32 30 0 0
BITMAP
00003FFF
00006000
0000A000
0000A000
00012000
00012000
00022000
00042000
00042000
00082000
00102000
00102000
00202000
00202000
007FFFFC
00802000
00802000
01002000
02002000
02002000
04002000
04002000
08002000
10002000
10002000
20002000
20002000
40002000
80002000
80003FFF
ENDCHAR
STARTCHAR 00C7
ENCODING 199
SWIDTH 500 0
DWIDTH 22 0
BBX 19 38 1 -7
BITMAP
00FE00
030180
040040
080020
100020
200000
200000
400000
400000
400000
400000
800000
800000
800000
800000
800000
800000
800000
800000
400000
400000
400000
400000
200000
200000
100020
080040
0C0040
060180
01FE00
002000
002000
003800
000400
000400
000400
008800
007000
ENDCHAR
STARTCHAR 00C8
ENCODING 200
SWIDTH 386 0
DWIDTH 17 0
BBX 16 37 1 1
BITMAP
0200
0200
0100
0080
0080
0040
0000
7FFF
8000
8000
8000
8000
8000
8000
8000
8000
8000
8000
8000
8000
8000
7FFC
8000
8000
8000
8000
8000
8000
8000
8000
8000
8000
8000
8000
8000
8000
7FFF
ENDCHAR
STARTCHAR 00C9
ENCODING 201
SWIDTH 386 0
DWIDTH 17 0
BBX 16 37 1 1
BITMAP
0040
0080
0100
0100
0200
0000
0000
7FFF
8000
8000
8000
8000
8000
8000
8000
8000
8000
8000
8000
8000
8000
7FFC
8000
8000
8000
8000
8000
8000
8000
8000
8000
8000
8000
8000
8000
8000
7FFF
ENDCHAR
STARTCHAR 00CA
ENCODING 202
SWIDTH 386 0
DWIDTH 17 0
BBX 16 38 1 0
BITMAP
0100
0280
0280
0440
0440
0020
0000
0000
7FFF
8000
8000
8000
8000
8000
8000
8000
8000
8000
8000
8000
8000
8000
7FFC
8000
8000
8000
8000
8000
8000
8000
8000
8000
8000
8000
8000
8000
8000
7FFF
ENDCHAR
STARTCHAR 00CB
ENCODING 203
SWIDTH 386 0
DWIDTH 17 0
BBX 16 35 1 1
BITMAP
0440
0440
0040
0000
0000
7FFF
8000
8000
8000
8000
8000
8000
8000
8000
8000
8000
8000
8000
8000
7FFC
8000
8000
8000
8000
8000
8000
8000
8000
8000
8000
8000
8000
8000
8000
7FFF
ENDCHAR
STARTCHAR 00CC
ENCODING 204
SWIDTH 90 0
DWIDTH 4 0
BBX 4 37 0 1
BITMAP
80
80
40
20
20
10
00
00
00
40
40
40
40
40
40
40
40
40
40
40
40
40
40
40
40
40
40
40
40
40
40
40
40
40
40
40
40
ENDCHAR
STARTCHAR 00CD
ENCODING 205
SWIDTH 90 0
DWIDTH 4 0
BBX 4 37 0 1
BITMAP
10
10
20
40
40
80
00
00
00
40
40
40
40
40
40
40
40
40
40
40
40
40
40
40
40
40
40
40
40
40
40
40
40
40
40
40
40
ENDCHAR
STARTCHAR 00CE
ENCODING 206
SWIDTH 90 0
DWIDTH 4 0
BBX 6 36 -1 1
BITMAP
30
50
48
88
84
00
00
00
20
20
20
20
20
20
20
20
20
20
20
20
20
20
20
20
20
20
20
20
20
20
20
20
20
20
20
20
ENDCHAR
STARTCHAR 00CF
ENCODING 207
SWIDTH 90 0
DWIDTH 4 0
BBX 4 35 0 0
BITMAP
80
90
90
00
00
00
00
40
40
40
40
40
40
40
40
40
40
40
40
40
40
40
40
40
40
40
40
40
40
40
40
40
40
40
40
ENDCHAR
STARTCHAR 00D0
ENCODING 208
SWIDTH 477 0
DWIDTH 21 0
BBX 19 30 1 0
BITMAP
7FE000
801C00
800200
800100
800100
800080
800080
800040
800040
800040
800040
800040
800020
800020
800020
FC0020
800020
800020
800040
800040
800040
800040
800040
800080
800080
800100
800200
800400
801800
7FE000
ENDCHAR
STARTCHAR 00D1
ENCODING 209
SWIDTH 477 0
DWIDTH 21 0
BBX 18 35 1 1
BITMAP
030400
04C800
043800
000000
000000
400000
C00040
A00040
A00040
900040
880040
880040
840040
840040
820040
820040
810040
810040
808040
804040
804040
802040
802040
801040
801040
800840
800840
800440
800240
800240
800140
800140
8000C0
8000C0
000040
ENDCHAR
STARTCHAR 00D2
ENCODING 210
SWIDTH 522 0
DWIDTH 23 0
BBX 21 37 1 1
BITMAP
004000
002000
002000
001000
000800
000000
000000
007800
038700
0C0080
100040
100020
200020
400010
400010
400010
800008
800008
800008
800008
800008
800008
800008
800008
800008
800008
800008
800008
400008
400010
400010
200020
200020
100040
0800C0
040100
03FE00
ENDCHAR
STARTCHAR 00D3
ENCODING 211
SWIDTH 522 0
DWIDTH 23 0
BBX 21 38 1 0
BITMAP
000800
001000
002000
002000
004000
004000
000000
000000
007800
038700
0C0080
100040
100020
200020
400010
400010
400010
800008
800008
800008
800008
800008
800008
800008
800008
800008
800008
800008
800008
400008
400010
400010
200020
200020
100040
0800C0
040100
03FE00
ENDCHAR
STARTCHAR 00D4
ENCODING 212
SWIDTH 522 0
DWIDTH 23 0
BBX 21 38 1 0
BITMAP
002000
005000
005000
008800
008800
010400
000000
000000
007800
038700
0C0080
100040
100020
200020
400010
400010
400010
800008
800008
800008
800008
800008
800008
800008
800008
800008
800008
800008
800008
400008
400010
400010
200020
200020
100040
0800C0
040100
03FE00
ENDCHAR
STARTCHAR 00D5
ENCODING 213
SWIDTH 522 0
DWIDTH 23 0
BBX 21 36 1 -1
BITMAP
00C200
012200
001C00
000000
000000
000000
007800
038700
0C0080
100040
100020
200020
400010
400010
400010
800008
800008
800008
800008
800008
800008
800008
800008
800008
800008
800008
800008
400008
400010
400010
200020
200020
100040
0800C0
040100
03FE00
ENDCHAR
STARTCHAR 00D6
ENCODING 214
SWIDTH 522 0
DWIDTH 23 0
BBX 21 36 1 -1
BITMAP
000800
008800
008800
000800
000000
000000
007800
038700
0C0080
100040
100020
200020
400010
400010
400010
800008
800008
800008
800008
800008
800008
800008
800008
800008
800008
800008
800008
400008
400010
400010
200020
200020
100040
0800C0
040100
03FE00
ENDCHAR
STARTCHAR 00D7
ENCODING 215
SWIDTH 340 0
DWIDTH 15 0
BBX 9 12 3 6
BITMAP
8080
4100
4100
2200
1400
0800
0800
1400
2200
4100
8100
8080
ENDCHAR
STARTCHAR 00D8
ENCODING 216
SWIDTH 522 0
DWIDTH 23 0
BBX 21 31 1 -1
BITMAP
007900
038700
0C0280
100240
100220
200420
400410
400410
400808
800808
800808
801008
801008
801008
802008
802008
802008
804008
804008
804008
808008
408008
408010
410010
210020
210020
120040
0A00C0
060100
05FE00
040000
ENDCHAR
STARTCHAR 00D9
ENCODING 217
SWIDTH 454 0
DWIDTH 20 0
BBX 18 38 1 -1
BITMAP
010000
010000
008000
004000
004000
002000
000000
000000
000040
800040
800040
800040
800040
800040
800040
800040
800040
800040
800040
800040
800040
800040
800040
800040
800040
800040
800040
800040
800040
400040
400080
400080
400080
200080
200100
100100
080600
07F800
ENDCHAR
STARTCHAR 00DA
ENCODING 218
SWIDTH 454 0
DWIDTH 20 0
BBX 18 37 1 0
BITMAP
002000
004000
004000
008000
010000
010000
000000
000040
800040
800040
800040
800040
800040
800040
800040
800040
800040
800040
800040
800040
800040
800040
800040
800040
800040
800040
800040
800040
400040
400080
400080
400080
200080
200100
100100
080600
07F800
ENDCHAR
STARTCHAR 00DB
ENCODING 219
SWIDTH 454 0
DWIDTH 20 0
BBX 18 38 1 -1
BITMAP
004000
00C000
00A000
012000
021000
021000
000000
000000
000040
800040
800040
800040
800040
800040
800040
800040
800040
800040
800040
800040
800040
800040
800040
800040
800040
800040
800040
800040
800040
400040
400080
400080
400080
200080
200100
100100
080600
07F800
ENDCHAR
STARTCHAR 00DC
ENCODING 220
SWIDTH 454 0
DWIDTH 20 0
BBX 18 36 1 -1
BITMAP
010000
012000
012000
010000
000000
000000
000040
800040
800040
800040
800040
800040
800040
800040
800040
800040
800040
800040
800040
800040
800040
800040
800040
800040
800040
800040
800040
400040
400080
400080
400080
200080
200100
100100
080600
07F800
ENDCHAR
STARTCHAR 00DD
ENCODING 221
SWIDTH 454 0
DWIDTH 20 0
BBX 19 36 1 2
BITMAP
002000
004000
008000
008000
010000
000000
000000
000020
800040
400080
400080
200100
100100
100200
080400
080400
040800
021000
021000
012000
00A000
00C000
008000
008000
008000
008000
008000
008000
008000
008000
008000
008000
008000
008000
008000
008000
ENDCHAR
STARTCHAR 00DE
ENCODING 222
SWIDTH 295 0
DWIDTH 13 0
BBX 10 28 1 1
BITMAP
8000
8000
8000
8000
8000
8000
7F00
8080
8040
8040
8040
8040
8040
8040
8040
8040
8040
8040
8040
8080
8300
FC00
8000
8000
8000
8000
8000
8000
ENDCHAR
STARTCHAR 00DF
ENCODING 223
SWIDTH 363 0
DWIDTH 16 0
BBX 14 31 1 -1
BITMAP
1FC0
2020
4010
4010
4010
4010
8010
8010
8010
8010
8020
83C0
80C0
8020
8010
8010
8008
8008
8008
8004
8004
8004
8004
8004
8008
8008
8008
8010
8010
0020
03C0
ENDCHAR
STARTCHAR 00E0
ENCODING 224
SWIDTH 386 0
DWIDTH 17 0
BBX 14 30 1 0
BITMAP
0400
0200
0200
0100
0100
0080
0000
07C0
1824
2014
400C
400C
800C
8004
8004
8004
8004
8004
8004
8004
8004
8004
8004
8004
400C
400C
2014
1024
0CC0
0300
ENDCHAR
STARTCHAR 00E1
ENCODING 225
SWIDTH 386 0
DWIDTH 17 0
BBX 15 30 1 0
BITMAP
0080
0100
0100
0200
0400
0400
0000
07C2
1822
1012
200A
400A
4006
4006
8002
8002
8002
8002
8002
8002
8002
8002
8002
4006
4006
400A
200A
1012
0CE2
0300
ENDCHAR
STARTCHAR 00E2
ENCODING 226
SWIDTH 386 0
DWIDTH 17 0
BBX 15 30 1 0
BITMAP
0300
0480
0480
0840
0840
0000
0000
07C2
1822
1012
200A
400A
4006
4006
8002
8002
8002
8002
8002
8002
8002
8002
8002
4006
4006
400A
200A
1012
0CE2
0300
ENDCHAR
STARTCHAR 00E3
ENCODING 227
SWIDTH 386 0
DWIDTH 17 0
BBX 15 28 1 0
BITMAP
1E20
1120
10C0
0000
0000
07C2
1822
1012
200A
400A
4006
4006
8002
8002
8002
8002
8002
8002
8002
8002
8002
4006
4006
400A
200A
1012
0CE2
0300
ENDCHAR
STARTCHAR 00E4
ENCODING 228
SWIDTH 386 0
DWIDTH 17 0
BBX 15 28 1 0
BITMAP
0440
0440
0440
0000
0000
07C2
1822
1012
200A
400A
4006
4006
8002
8002
8002
8002
8002
8002
8002
8002
8002
4006
4006
400A
200A
1012
0CE2
0300
ENDCHAR
STARTCHAR 00E5
ENCODING 229
SWIDTH 386 0
DWIDTH 17 0
BBX 15 32 1 -1
BITMAP
0300
0480
0440
0440
0440
0480
0300
0000
0000
07C2
1822
1012
200A
400A
4006
4006
8002
8002
8002
8002
8002
8002
8002
8002
8002
4006
4006
400A
200A
1012
0CE2
0300
ENDCHAR
STARTCHAR 00E6
ENCODING 230
SWIDTH 681 0
DWIDTH 30 0
BBX 28 23 1 -1
BITMAP
07C01F00
18246080
20148040
400D0020
400D0020
800E0010
80060010
80060010
80040010
80040010
80040010
8007FFE0
80040000
80040000
80040000
80060000
80060010
400E0020
400E0020
20150040
102480C0
0CC06300
03001C00
ENDCHAR
STARTCHAR 00E7
ENCODING 231
SWIDTH 363 0
DWIDTH 16 0
BBX 14 30 1 -8
BITMAP
07C0
1830
1010
2008
4008
4004
8000
8000
8000
8000
8000
8000
8000
8000
8000
8004
8004
4004
4008
2008
1010
0CE0
0300
0100
01C0
0020
0020
0020
0440
0380
ENDCHAR
STARTCHAR 00E8
ENCODING 232
SWIDTH 363 0
DWIDTH 16 0
BBX 15 30 0 0
BITMAP
0200
0100
0100
0080
0040
0000
0000
03E0
0C10
1008
2004
2004
4002
4002
4002
4002
8002
8002
FFFC
8000
8000
4000
4000
4002
4002
2004
2004
1008
0E70
0180
ENDCHAR
STARTCHAR 00E9
ENCODING 233
SWIDTH 363 0
DWIDTH 16 0
BBX 15 30 0 0
BITMAP
0040
0080
0080
0100
0200
0200
0000
03E0
0C10
1008
2004
2004
4002
4002
4002
4002
8002
8002
FFFC
8000
8000
4000
4000
4002
4002
2004
2004
1008
0E70
0180
ENDCHAR
STARTCHAR 00EA
ENCODING 234
SWIDTH 363 0
DWIDTH 16 0
BBX 15 30 0 0
BITMAP
0180
0280
0240
0420
0420
0000
0000
03E0
0C10
1008
2004
2004
4002
4002
4002
4002
8002
8002
FFFC
8000
8000
4000
4000
4002
4002
2004
2004
1008
0E70
0180
ENDCHAR
STARTCHAR 00EB
ENCODING 235
SWIDTH 363 0
DWIDTH 16 0
BBX 15 28 0 0
BITMAP
0200
0240
0200
0000
0000
03E0
0C10
1008
2004
2004
4002
4002
4002
4002
8002
8002
FFFC
8000
8000
4000
4000
4002
4002
2004
2004
1008
0E70
0180
ENDCHAR
STARTCHAR 00EC
ENCODING 236
SWIDTH 90 0
DWIDTH 4 0
BBX 4 28 0 1
BITMAP
80
40
40
20
10
00
00
00
00
40
40
40
40
40
40
40
40
40
40
40
40
40
40
40
40
40
40
40
ENDCHAR
STARTCHAR 00ED
ENCODING 237
SWIDTH 90 0
DWIDTH 4 0
BBX 4 28 0 1
BITMAP
10
20
20
40
80
80
00
00
00
40
40
40
40
40
40
40
40
40
40
40
40
40
40
40
40
40
40
40
ENDCHAR
STARTCHAR 00EE
ENCODING 238
SWIDTH 90 0
DWIDTH 4 0
BBX 6 29 -1 0
BITMAP
10
30
50
48
88
84
00
00
00
00
20
20
20
20
20
20
20
20
20
20
20
20
20
20
20
20
20
20
20
ENDCHAR
STARTCHAR 00EF
ENCODING 239
SWIDTH 90 0
DWIDTH 4 0
BBX 4 26 0 1
BITMAP
80
90
80
00
00
00
00
40
40
40
40
40
40
40
40
40
40
40
40
40
40
40
40
40
40
40
ENDCHAR
STARTCHAR 00F0
ENCODING 240
SWIDTH 386 0
DWIDTH 17 0
BBX 14 30 1 0
BITMAP
0004
0004
1FFC
0004
0004
0004
0004
07C4
1824
2014
400C
400C
800C
8004
8004
8004
8004
8004
8004
8004
8004
8004
8004
8004
400C
400C
2014
1024
0CC0
0300
ENDCHAR
STARTCHAR 00F1
ENCODING 241
SWIDTH 363 0
DWIDTH 16 0
BBX 13 26 1 1
BITMAP
0E20
1120
10C0
0000
0000
07C0
0820
9010
A008
C008
C008
4008
4008
8008
8008
8008
8008
8008
8008
8008
8008
8008
8008
8008
8008
8008
ENDCHAR
STARTCHAR 00F2
ENCODING 242
SWIDTH 386 0
DWIDTH 17 0
BBX 15 31 1 -1
BITMAP
0400
0400
0200
0100
0100
0080
0000
0000
07C0
1830
2010
2008
4004
8004
8004
8002
8002
8002
8002
8002
8002
8002
8002
8004
8004
4004
4008
2008
1010
0CE0
0300
ENDCHAR
STARTCHAR 00F3
ENCODING 243
SWIDTH 386 0
DWIDTH 17 0
BBX 15 30 1 0
BITMAP
0080
0080
0100
0200
0200
0400
0000
07C0
1830
2010
2008
4004
8004
8004
8002
8002
8002
8002
8002
8002
8002
8002
8004
8004
4004
4008
2008
1010
0CE0
0300
ENDCHAR
STARTCHAR 00F4
ENCODING 244
SWIDTH 386 0
DWIDTH 17 0
BBX 15 31 1 -1
BITMAP
0100
0300
0280
0480
0440
0800
0000
0000
07C0
1830
2010
2008
4004
8004
8004
8002
8002
8002
8002
8002
8002
8002
8002
8004
8004
4004
4008
2008
1010
0CE0
0300
ENDCHAR
STARTCHAR 00F5
ENCODING 245
SWIDTH 386 0
DWIDTH 17 0
BBX 15 29 1 -1
BITMAP
0400
0A20
11A0
1040
0000
0000
07C0
1830
2010
2008
4004
8004
8004
8002
8002
8002
8002
8002
8002
8002
8002
8004
8004
4004
4008
2008
1010
0CE0
0300
ENDCHAR
STARTCHAR 00F6
ENCODING 246
SWIDTH 386 0
DWIDTH 17 0
BBX 15 28 1 0
BITMAP
0440
0440
0440
0000
0000
07C0
1830
2010
2008
4004
8004
8004
8002
8002
8002
8002
8002
8002
8002
8002
8004
8004
4004
4008
2008
1010
0CE0
0300
ENDCHAR
STARTCHAR 00F7
ENCODING 247
SWIDTH 409 0
DWIDTH 18 0
BBX 14 13 2 4
BITMAP
0200
0200
0000
0000
0000
0000
FFFC
0000
0000
0000
0000
0200
0200
ENDCHAR
STARTCHAR 00F8
ENCODING 248
SWIDTH 386 0
DWIDTH 17 0
BBX 15 25 1 -2
BITMAP
0010
0010
07E0
1820
2030
2048
4044
8044
8084
8082
8082
8102
8102
8102
8202
8202
8202
8404
8404
4804
4808
2808
1010
1CE0
1300
ENDCHAR
STARTCHAR 00F9
ENCODING 249
SWIDTH 363 0
DWIDTH 16 0
BBX 13 30 1 0
BITMAP
0400
0200
0200
0100
0080
0080
0000
0000
0000
8008
8008
8008
8008
8008
8008
8008
8008
8008
8008
8008
8008
8008
8008
4008
4018
4018
2018
2028
18C0
0700
ENDCHAR
STARTCHAR 00FA
ENCODING 250
SWIDTH 363 0
DWIDTH 16 0
BBX 13 30 1 0
BITMAP
0080
0100
0100
0200
0400
0400
0000
0000
0000
8008
8008
8008
8008
8008
8008
8008
8008
8008
8008
8008
8008
8008
8008
4008
4018
4018
2018
2028
18C0
0700
ENDCHAR
STARTCHAR 00FB
ENCODING 251
SWIDTH 363 0
DWIDTH 16 0
BBX 13 30 1 0
BITMAP
0300
0500
0480
0840
0840
0000
0000
0000
0000
8008
8008
8008
8008
8008
8008
8008
8008
8008
8008
8008
8008
8008
8008
4008
4018
4018
2018
2028
18C0
0700
ENDCHAR
STARTCHAR 00FC
ENCODING 252
SWIDTH 363 0
DWIDTH 16 0
BBX 13 28 1 0
BITMAP
0400
0480
0400
0000
0000
0000
0000
8008
8008
8008
8008
8008
8008
8008
8008
8008
8008
8008
8008
8008
8008
4008
4018
4018
2018
2028
18C0
0700
ENDCHAR
STARTCHAR 00FD
ENCODING 253
SWIDTH 363 0
DWIDTH 16 0
BBX 13 38 1 -8
BITMAP
0080
0080
0100
0200
0200
0400
0000
0000
0000
0000
8008
8008
8008
8008
8008
8008
8008
8008
8008
8008
8008
8008
8008
8008
4008
4018
4018
2018
2028
18C8
0708
8008
8008
8008
4010
4010
3060
0F80
ENDCHAR
STARTCHAR 00FE
ENCODING 254
SWIDTH 386 0
DWIDTH 17 0
BBX 15 35 1 -7
BITMAP
8000
8000
8000
8000
8000
8000
8000
83E0
8C10
9008
A004
A004
C004
4002
4002
4002
8002
8002
8002
8002
4002
4002
4002
C002
C004
A004
9008
8818
8660
8180
8000
8000
8000
8000
8000
ENDCHAR
STARTCHAR 00FF
ENCODING 255
SWIDTH 363 0
DWIDTH 16 0
BBX 13 35 1 -7
BITMAP
0080
0880
0080
0000
0000
0000
0000
8008
8008
8008
8008
8008
8008
8008
8008
8008
8008
8008
8008
8008
8008
4008
4018
4018
2018
2028
18C8
0708
8008
8008
8008
4010
4010
3060
0F80
ENDCHAR
STARTCHAR 0131
ENCODING 305
SWIDTH 90 0
DWIDTH 4 0
BBX 1 19 1 2
BITMAP
80
80
80
80
80
80
80
80
80
80
80
80
80
80
80
80
80
80
80
ENDCHAR
STARTCHAR 0152
ENCODING 338
SWIDTH 704 0
DWIDTH 31 0
BBX 29 31 1 0
BITMAP
01FFFFF8
06070000
0C048000
10044000
10042000
20042000
40041000
40041000
40040800
80040800
80040800
80040800
80040800
80040800
8007FFF0
80040800
80040800
80040800
80040800
80040800
80040800
40040800
40041000
40041000
20041000
20042000
10044000
08048000
04050000
03DFFFF8
00200000
ENDCHAR
STARTCHAR 0153
ENCODING 339
SWIDTH 727 0
DWIDTH 32 0
BBX 30 23 1 -1
BITMAP
03E00F80
0C101060
10086030
20044010
20048008
40028008
40030008
40010004
80010004
80010004
80010004
8001FFF8
80010000
80010000
40010000
40030000
40030008
40028008
20048010
10084010
18082020
067019C0
01800600
ENDCHAR
STARTCHAR 0160
ENCODING 352
SWIDTH 454 0
DWIDTH 20 0
BBX 17 38 1 0
BITMAP
021000
022000
012000
014000
00C000
000000
000000
000000
07F000
180C00
200200
400100
400100
400100
800080
800080
400080
400000
400000
200000
100000
0E0000
01C000
003800
000600
000100
000100
000080
800080
800080
800080
800080
800080
400080
400100
200100
180600
07F800
ENDCHAR
STARTCHAR 0161
ENCODING 353
SWIDTH 340 0
DWIDTH 15 0
BBX 12 31 1 0
BITMAP
1000
0880
0900
0500
0600
0200
0000
0000
0F80
3060
2020
4010
4010
4010
4000
4000
4000
2000
1C00
0380
0060
0010
0010
8010
8010
8010
4010
4010
2020
1CC0
0700
ENDCHAR
STARTCHAR 0178
ENCODING 376
SWIDTH 454 0
DWIDTH 20 0
BBX 19 36 1 0
BITMAP
010000
012000
012000
010000
000000
000000
800020
800040
400080
400080
200100
100100
100200
080400
080400
040800
020800
021000
012000
00A000
00C000
004000
004000
004000
004000
004000
004000
004000
004000
004000
004000
004000
004000
004000
004000
004000
ENDCHAR
STARTCHAR 0192
ENCODING 402
SWIDTH 409 0
DWIDTH 18 0
BBX 18 36 0 -7
BITMAP
0003C0
000400
000800
001000
001000
002000
002000
002000
002000
004000
01FC00
004000
004000
004000
004000
008000
008000
008000
008000
008000
008000
010000
010000
010000
010000
010000
010000
020000
020000
020000
020000
040000
040000
080000
100000
E00000
ENDCHAR
STARTCHAR 02C6
ENCODING 710
SWIDTH 181 0
DWIDTH 8 0
BBX 6 5 1 24
BITMAP
30
50
48
88
84
ENDCHAR
STARTCHAR 02C7
ENCODING 711
SWIDTH 90 0
DWIDTH 4 0
BBX 6 6 -1 25
BITMAP
84
84
48
50
30
20
ENDCHAR
STARTCHAR 02C9
ENCODING 713
SWIDTH 227 0
DWIDTH 10 0
BBX 8 1 1 27
BITMAP
FF
ENDCHAR
STARTCHAR 02DA
ENCODING 730
SWIDTH 90 0
DWIDTH 4 0
BBX 5 6 -1 26
BITMAP
78
88
88
88
48
30
ENDCHAR
STARTCHAR 02DC
ENCODING 732
SWIDTH 250 0
DWIDTH 11 0
BBX 9 4 1 24
BITMAP
2000
5080
8D00
0200
ENDCHAR
STARTCHAR 03BC
ENCODING 956
SWIDTH 409 0
DWIDTH 18 0
BBX 0 0 0 0
BITMAP
ENDCHAR
STARTCHAR 2010
ENCODING 8208
SWIDTH 250 0
DWIDTH 11 0
BBX 8 1 2 12
BITMAP
FF
ENDCHAR
STARTCHAR 2013
ENCODING 8211
SWIDTH 340 0
DWIDTH 15 0
BBX 15 1 0 12
BITMAP
FFFE
ENDCHAR
STARTCHAR 2014
ENCODING 8212
SWIDTH 636 0
DWIDTH 28 0
BBX 27 1 0 12
BITMAP
FFFFFFE0
ENDCHAR
STARTCHAR 2018
ENCODING 8216
SWIDTH 113 0
DWIDTH 5 0
BBX 2 7 2 21
BITMAP
40
40
80
80
80
80
80
ENDCHAR
STARTCHAR 2019
ENCODING 8217
SWIDTH 113 0
DWIDTH 5 0
BBX 2 8 2 21
BITMAP
40
40
80
80
80
80
80
80
ENDCHAR
STARTCHAR 201A
ENCODING 8218
SWIDTH 204 0
DWIDTH 9 0
BBX 2 8 3 -5
BITMAP
40
40
40
80
80
80
80
80
ENDCHAR
STARTCHAR 201C
ENCODING 8220
SWIDTH 181 0
DWIDTH 8 0
BBX 5 8 2 21
BITMAP
48
48
88
88
90
90
90
10
ENDCHAR
STARTCHAR 201D
ENCODING 8221
SWIDTH 181 0
DWIDTH 8 0
BBX 5 8 2 21
BITMAP
48
48
88
88
90
90
90
90
ENDCHAR
STARTCHAR 201E
ENCODING 8222
SWIDTH 250 0
DWIDTH 11 0
BBX 5 8 3 -5
BITMAP
40
48
48
88
90
90
90
90
ENDCHAR
STARTCHAR 2020
ENCODING 8224
SWIDTH 250 0
DWIDTH 11 0
BBX 8 28 1 -1
BITMAP
10
10
10
10
FF
10
10
10
10
10
10
10
10
10
10
10
10
10
10
10
10
10
10
10
10
10
10
10
ENDCHAR
STARTCHAR 2021
ENCODING 8225
SWIDTH 227 0
DWIDTH 10 0
BBX 8 30 1 -2
BITMAP
08
08
08
08
08
FF
08
08
08
08
08
08
08
08
08
08
08
08
08
08
08
08
08
08
FF
08
08
08
08
08
ENDCHAR
STARTCHAR 2022
ENCODING 8226
SWIDTH 204 0
DWIDTH 9 0
BBX 4 7 2 11
BITMAP
40
F0
F0
F0
F0
F0
F0
ENDCHAR
STARTCHAR 2026
ENCODING 8230
SWIDTH 454 0
DWIDTH 20 0
BBX 12 4 4 -1
BITMAP
8000
8210
8210
8200
ENDCHAR
STARTCHAR 2030
ENCODING 8240
SWIDTH 704 0
DWIDTH 31 0
BBX 29 31 1 -1
BITMAP
00004000
1C008000
22008000
41010000
81010000
81020000
81020000
81040000
81040000
81080000
81080000
81100000
81100000
41200000
42200000
364180C0
08464130
00882210
00882408
01082408
01101408
01101408
02101408
02101408
04101408
04101408
08101408
08082408
10082210
10044210
000381E0
ENDCHAR
STARTCHAR 2039
ENCODING 8249
SWIDTH 204 0
DWIDTH 9 0
BBX 5 10 2 7
BITMAP
08
10
20
40
80
80
40
20
10
08
ENDCHAR
STARTCHAR 203A
ENCODING 8250
SWIDTH 204 0
DWIDTH 9 0
BBX 5 10 2 7
BITMAP
80
40
20
10
08
08
10
20
40
80
ENDCHAR
STARTCHAR 20AC
ENCODING 8364
SWIDTH 409 0
DWIDTH 18 0
BBX 15 31 1 -1
BITMAP
0060
0398
0404
0802
0800
1000
1000
1000
2000
2000
2000
2000
7FF0
2000
2000
2000
2000
2000
FFE0
2000
2000
2000
2000
1000
1000
1000
0800
0802
0406
0318
00E0
ENDCHAR
STARTCHAR 2122
ENCODING 8482
SWIDTH 545 0
DWIDTH 24 0
BBX 21 15 2 16
BITMAP
FFC018
08C018
08A028
08A028
08A028
089048
089048
088848
088888
088888
088488
088508
088508
088308
080208
ENDCHAR
STARTCHAR 2212
ENCODING 8722
SWIDTH 409 0
DWIDTH 18 0
BBX 14 1 2 10
BITMAP
FFFC
ENDCHAR
STARTCHAR 2219
ENCODING 8729
SWIDTH 136 0
DWIDTH 6 0
BBX 1 4 3 13
BITMAP
80
80
80
80
ENDCHAR
ENDFONT
